<?xml version="1.0" encoding="UTF-8"?>
<!DOCTYPE svg PUBLIC "-//W3C//DTD SVG 1.1//EN" "http://www.w3.org/Graphics/SVG/1.1/DTD/svg11.dtd">
<!-- Creator: CorelDRAW 2018 (64 Bit) -->
<svg xmlns="http://www.w3.org/2000/svg" xml:space="preserve" width="297mm" height="210mm" version="1.1" style="shape-rendering:geometricPrecision; text-rendering:geometricPrecision; image-rendering:optimizeQuality; fill-rule:evenodd; clip-rule:evenodd"
viewBox="0 0 29700 21000"
 xmlns:xlink="http://www.w3.org/1999/xlink">
 <defs>
  <style type="text/css">
   <![CDATA[
    .fil0 {fill:none}
    .fil2 {fill:#5EC3B4}
    .fil1 {fill:#1F4E5D}
   ]]>
  </style>
 </defs>
 <g id="Camada_x0020_1">
  <metadata id="CorelCorpID_0Corel-Layer"/>
  <rect class="fil0" x="1037.19" y="785.6" width="3000" height="3000"/>
  <g id="_1658062760624">
   <path class="fil1" d="M3711.93 1631.32l-47.37 -412.34c0,0 -173.71,22.81 -203.54,-31.59 -29.83,-54.39 145.63,-185.99 205.28,-233.36 59.66,-47.38 572.01,-472 572.01,-472l768.51 656.24c0,0 24.57,26.32 1.76,54.39 -22.81,28.08 -200.03,-7.02 -200.03,-7.02l-49.13 310.58c0,0 -63.17,26.33 -156.17,49.14 -92.99,22.81 -168.44,40.35 -168.44,40.35l0 -177.21 -210.6 0 0 200.91c0,8.21 -6.71,14.91 -14.91,14.91l-0.01 0c-8.2,0 -14.91,-6.7 -14.91,-14.91l0 -200.91 -210.11 0 -2.17 224.58c0,0 -129.84,10.53 -270.17,-1.76zm722.88 -261.42l-0.01 -279 -210.59 -1.65 0 280.65 210.6 0zm-240.43 -280.88l-207.01 -1.63 -2.73 282.51 209.74 0 0 -280.88z"/>
   <path class="fil2" d="M3550.45 1524.3c0,0 -75.44,92.99 143.89,129.84 219.32,36.85 550.94,-1.76 822.91,-59.66 271.97,-57.9 449.19,-152.65 454.45,-201.78 5.27,-49.13 -152.65,-100.01 -152.65,-100.01 0,0 184.23,0 224.59,75.45 40.36,75.45 -298.29,210.55 -298.29,210.55l-26.32 229.86 -979.09 7.02 -22.81 -119.31c0,0 -303.55,-22.81 -166.68,-171.96z"/>
   <polygon class="fil2" points="3787.29,1320.77 3834.67,1439.21 3737.29,1522.56 3859.23,1485.71 3931.17,1577.83 3899.59,1468.16 3986.45,1385.7 3873.27,1415.52 "/>
   <polygon class="fil2" points="4581.8,1188.94 4536.9,1235.39 4478.2,1207.69 4520.51,1256.39 4492.88,1308.73 4536.99,1271.39 4593.11,1294.42 4555.85,1248.31 "/>
   <polygon class="fil2" points="4497.19,804.75 4474.01,913 4363.52,925.92 4469.2,958.39 4476.45,1059.56 4506.77,965.28 4609.24,947.9 4513.28,914.62 "/>
  </g>
 </g>
</svg>
